<?xml version="1.0" encoding="UTF-8" standalone="no"?>
<!-- Created with Inkscape (http://www.inkscape.org/) -->

<svg
   version="1.1"
   id="svg2"
   width="4569.2798"
   height="2811.8267"
   viewBox="0 0 4569.2798 2811.8267"
   sodipodi:docname="shark_illustration.eps"
   xmlns:inkscape="http://www.inkscape.org/namespaces/inkscape"
   xmlns:sodipodi="http://sodipodi.sourceforge.net/DTD/sodipodi-0.dtd"
   xmlns="http://www.w3.org/2000/svg"
   xmlns:svg="http://www.w3.org/2000/svg">
  <defs
     id="defs6" />
  <sodipodi:namedview
     id="namedview4"
     pagecolor="#ffffff"
     bordercolor="#000000"
     borderopacity="0.25"
     inkscape:showpageshadow="2"
     inkscape:pageopacity="0.0"
     inkscape:pagecheckerboard="0"
     inkscape:deskcolor="#d1d1d1" />
  <g
     id="g8"
     inkscape:groupmode="layer"
     inkscape:label="ink_ext_XXXXXX"
     transform="matrix(1.3333333,0,0,-1.3333333,0,2811.8267)">
    <g
       id="g10"
       transform="scale(0.1)">
      <path
         d="m 20862.9,20884.9 c -13.8,-11.1 -28.6,-23.1 -44.1,-35.8 -668.6,-548.6 -2889.3,-2574 -2641.6,-4389.9 l -1754.2,467.4 -4141.2,1103.5 c 557.5,827.8 4510.2,3716.2 8581.1,2854.8"
         style="fill:#3b9cbc;fill-opacity:1;fill-rule:nonzero;stroke:none"
         id="path12" />
      <path
         d="m 20252.2,20848.8 c -1672.3,304.1 -4439.9,-335.5 -7497.4,-2565.3 388.5,50.7 1055.6,-62.5 1115.7,-85 142.6,488 3493.2,2785.5 6381.7,2650.3"
         style="fill:#88dff2;fill-opacity:1;fill-rule:nonzero;stroke:none"
         id="path14" />
      <path
         d="m 18177.2,16459.2 -1754.2,467.4 -1641.2,816.3 c 1885.3,1362.5 4245.9,2918.1 6037,3106.2 -668.6,-548.6 -2889.3,-2574 -2641.6,-4389.9"
         style="fill:#2786a0;fill-opacity:1;fill-rule:nonzero;stroke:none"
         id="path16" />
      <path
         d="m 15236.1,20131.9 c -893.1,-409.2 -1568.2,-850.7 -1977.3,-1149 -479.3,-349.5 -858.5,-696.2 -1014.3,-927.6 l 74.7,-50.3 c 271.5,403.2 1398.3,1332 2954.4,2045 1323.8,606.6 3342.8,1233.9 5487.6,809.7 -524.3,-435.5 -2886.7,-2514.4 -2628.7,-4406.6 l 89.3,12.2 c -106.3,779.2 233.9,1685 1010.9,2692.3 690.7,895.4 1502.8,1566.7 1658.6,1692.2 l 73.8,59.5 -92.8,19.7 c -2203.2,466.2 -4281.1,-176.1 -5636.2,-797.1"
         style="fill:#020202;fill-opacity:1;fill-rule:nonzero;stroke:none"
         id="path18" />
      <path
         d="m 5044.89,18048.4 c -777.08,22.5 -1554.15,-596.9 -1711.82,-1509.1 l 934.74,-253.4 2308.7,422.3 c -202.72,563.1 -754.55,1317.6 -1531.62,1340.2"
         style="fill:#3b9cbc;fill-opacity:1;fill-rule:nonzero;stroke:none"
         id="path20" />
      <path
         d="m 3738.5,17203.7 c 337.86,489.9 1668.27,1282.5 2563.55,-288.4 -557.44,625 -1463.63,1080.5 -2563.55,288.4"
         style="fill:#88dff2;fill-opacity:1;fill-rule:nonzero;stroke:none"
         id="path22" />
      <path
         d="m 5046.19,18093.4 c -395.16,11.4 -792.58,-135.9 -1118.77,-414.8 -335.33,-286.8 -562.17,-688.7 -638.74,-1131.7 l 88.78,-15.3 c 146.59,848.1 878.78,1494.7 1666.12,1471.7 707.36,-20.5 1268.51,-693.6 1490.54,-1310.4 l 84.77,30.6 c -116.68,324.1 -321.11,648.2 -560.87,889.3 -302.37,304 -652.26,470.2 -1011.83,480.6"
         style="fill:#020202;fill-opacity:1;fill-rule:nonzero;stroke:none"
         id="path24" />
      <path
         d="M 10912.3,3689.4 C 9625.11,3436.3 9584.68,657.703 9037.46,98.9023 9024.63,85.7031 9011.34,73.8008 8997.82,63.1016 8741.16,383 8554.67,803.301 8424.03,1258.5 8119.5,2318.9 8118.04,3569.6 8239.78,4186.8 c 11.83,59.8 24.67,113.7 38.63,160.7 l 1552.34,-387.8 1081.55,-270.3"
         style="fill:#3b9cbc;fill-opacity:1;fill-rule:nonzero;stroke:none"
         id="path26" />
      <path
         d="M 8424.03,1258.5 C 8119.5,2318.9 8118.04,3569.6 8239.78,4186.8 l 577.85,-249.6 C 8472.57,3624.9 8325.26,2335.4 8424.03,1258.5"
         style="fill:#88dff2;fill-opacity:1;fill-rule:nonzero;stroke:none"
         id="path28" />
      <path
         d="M 10912.3,3689.4 C 9625.11,3436.3 9584.68,657.703 9037.46,98.9023 9403.93,1485.3 8957.84,2738.8 9325.77,3874.5 l 504.98,85.2 1081.55,-270.3"
         style="fill:#2786a0;fill-opacity:1;fill-rule:nonzero;stroke:none"
         id="path30" />
      <path
         d="M 9965.44,2853.6 C 9749.92,2410.7 9603.51,1859.4 9474.32,1373 9331.09,833.703 9195.35,322.602 9003.61,128.703 8138.55,1257.9 8102.7,3593.8 8321.62,4334.8 l -86.4,25.5 c -101.66,-344.1 -165.78,-1120.5 -66.3,-2012.2 51.11,-458.1 137.88,-880 257.88,-1254 C 8565.58,661.602 8745.87,305.203 8962.68,34.9023 L 8990.63,0 l 35.08,27.7031 c 233.42,183.9999 373.5,711.4999 535.69,1322.1969 128.13,482.4 273.36,1029.3 485,1464.3 238.7,490.4 524.8,762.2 874.6,831 l -17.3,88.4 c -379.5,-74.6 -686.4,-362.4 -938.26,-880"
         style="fill:#020202;fill-opacity:1;fill-rule:nonzero;stroke:none"
         id="path32" />
      <path
         d="m 6129.78,8070.3 c -52.55,-105.1 37.54,-705.8 330.35,-1223.8 l 555.59,1306.4 c -202.71,67.6 -833.38,22.5 -885.94,-82.6"
         style="fill:#ffffff;fill-opacity:1;fill-rule:nonzero;stroke:none"
         id="path34" />
      <path
         d="m 6089.5,8090.4 c -40.51,-81 -10,-304.8 32.05,-487.3 36.2,-157.1 123.24,-467.2 299.36,-778.8 l 78.44,44.4 c -296.41,524.4 -370.13,1099.7 -329.47,1181.1 11.9,18.3 114.93,62.6 357.48,82.2 196.51,16 387.04,7.2 474.11,-21.9 l 28.5,85.5 c -193.29,64.4 -866.91,42 -940.47,-105.2"
         style="fill:#000000;fill-opacity:1;fill-rule:nonzero;stroke:none"
         id="path36" />
      <path
         d="m 5454.07,6891.5 c -112.62,-108.8 56.31,-1051.1 236.5,-1336.4 l 788.33,1231.3 c -217.73,71.4 -912.21,214 -1024.83,105.1"
         style="fill:#ffffff;fill-opacity:1;fill-rule:nonzero;stroke:none"
         id="path38" />
      <path
         d="m 5422.76,6923.9 c -88.25,-85.3 -40.76,-439 -4.59,-642.3 43.36,-243.7 130.75,-586.6 234.31,-750.5 l 76.18,48.1 c -79.5,125.9 -166.56,407.8 -221.79,718.2 -61,342.8 -49.29,534.9 -21.49,561.7 27.22,26.4 157.56,42.9 435.26,2.9 212.17,-30.6 438.76,-83.8 544.24,-118.4 l 28.05,85.6 c -154.01,50.5 -923.99,236 -1070.17,94.7"
         style="fill:#000000;fill-opacity:1;fill-rule:nonzero;stroke:none"
         id="path40" />
      <path
         d="m 34134.4,18735.3 c -231.2,-245.9 -421.6,-584.5 -668.9,-989 -318.6,-521.4 -731.7,-1152.8 -1448.3,-1837.7 -1272.6,-1216.3 -2196.1,-2015.9 -2196.1,-3018.2 0,-1002.3 514.4,-946 762.1,-1599.2 247.8,-653.2 653.2,-983.5 818.3,-1081.1 -390.3,-345.4 -2222.3,-1073.6 -3896.6,1809.4 -720.8,127.6 -2387.5,-503.1 -4084.3,-1674.3 C 21723.8,9174 16363.1,4556.6 13772.9,3790.8 11182.6,3024.9 8975.3,3464.2 7511.25,4320.1 c -769.53,-120.2 -1430.27,-142.7 -1982.1,330.3 -551.84,473 371.64,1456.6 743.29,2012.1 371.64,555.6 645.64,1663.1 578.07,2076 -495.52,-112.7 -2518.05,183.1 -3832.77,542.4 -844.65,230.9 -906.59,608.2 -703.87,884.1 -270.29,253.4 -2065.1,2028.4 -2265.5653,3100.8 -6.9805,37.5 -2.8164,78.3 11.8242,122 295.6291,890.6 4864.7011,2977.6 5401.4511,3106.4 732.02,-33.8 1430.26,304.1 1509.1,596.9 157.66,574.4 1537.25,1469.7 2179.18,1413.4 641.93,-56.3 1165.64,-456.1 1216.24,-523.7 157.7,84.5 1599.9,241.8 3812.2,-45.1 3441.4,-446.2 6959.2,-2515.8 7928.4,-2612.7 157.7,416.7 2646.6,1373.9 3333.5,979.8 -180.2,-281.6 -1182.5,-1171.3 -1261.3,-1666.8 957.3,-461.7 2691.6,-630.7 3434.9,-337.9 743.3,292.9 2973.1,3603.9 6520.6,4437.2"
         style="fill:#3b9cbc;fill-opacity:1;fill-rule:nonzero;stroke:none"
         id="path42" />
      <path
         d="M 5134.98,16223.9 C 4065.1,15672.1 1305.92,14343.2 844.188,13971.5 c 292.812,135.2 1610.452,608.2 2590.242,349.2 -247.76,405.4 1261.34,1554.1 1700.55,1903.2"
         style="fill:#88dff2;fill-opacity:1;fill-rule:nonzero;stroke:none"
         id="path44" />
      <path
         d="m 7278.5,17350.1 c 409.18,570.6 1313.89,953.5 1711.81,1006.1 397.93,52.5 1133.69,-307.8 1291.39,-495.5 -1081.16,495.5 -2072.21,259 -3003.2,-510.6"
         style="fill:#88dff2;fill-opacity:1;fill-rule:nonzero;stroke:none"
         id="path46" />
      <path
         d="m 33465.5,17746.3 c -318.6,-521.4 -731.7,-1152.8 -1448.3,-1837.7 -1272.6,-1216.3 -2196.1,-2015.9 -2196.1,-3018.2 0,-1002.3 514.4,-946 762.1,-1599.2 247.8,-653.2 653.2,-983.5 818.3,-1081.1 -390.3,-345.4 -2222.3,-1073.6 -3896.6,1809.4 -720.8,127.6 -2387.5,-503.1 -4084.3,-1674.3 C 21723.8,9174 16363.1,4556.6 13772.9,3790.8 11182.6,3024.9 8975.3,3464.2 7511.25,4320.1 c -769.53,-120.2 -1430.27,-142.7 -1982.1,330.3 -551.84,473 371.64,1456.6 743.29,2012.1 371.64,555.6 645.64,1663.1 578.07,2076 -495.52,-112.7 -2518.05,183.1 -3832.77,542.4 -844.65,230.9 -906.59,608.2 -703.87,884.1 -270.29,253.4 -2065.1,2028.4 -2265.5653,3100.8 -6.9805,37.5 -2.8164,78.3 11.8242,122 C 1295.56,14132 2523,14321.5 3614.62,14121.7 c 1148.72,-210.2 2259.93,-623.2 3130.82,-946 870.88,-322.8 2462.64,-330.3 3123.27,0 660.69,330.4 2632.69,1459.2 3865.89,1003.1 1233.1,-456.1 1807.4,-1216.3 1739.8,-2094.6 -67.5,-878.5 4527.1,-1419 6351.4,-810.9 1824.4,608.1 3513.6,1554 4746.7,1435.8 1233.1,-118.2 2539.1,-134 2753.1,552.9 214,687 1756.9,2365 2624,3018.2 514.6,387.6 1116.3,1056.6 1515.9,1466.1"
         style="fill:#2786a0;fill-opacity:1;fill-rule:nonzero;stroke:none"
         id="path48" />
      <path
         d="m 33533.4,17944.9 c -335.3,-554.3 -752.7,-1244.3 -1547.3,-2003.7 -92.5,-88.4 -183.1,-174.6 -271.6,-258.8 -1125.4,-1070.1 -1938.4,-1843.2 -1938.4,-2792 0,-637.2 202.5,-858.7 417,-1093.3 126.1,-138 256.4,-280.6 348,-521.9 245.2,-646.4 636.5,-966.5 783.9,-1069 -166.5,-123.6 -520.9,-293.7 -1001.5,-293.8 -703.8,-0.1 -1757.3,369.4 -2779.6,2129.7 l -10.5,18.1 -20.6,3.6 c -63.5,11.3 -134.9,17 -212.1,17 -864.4,0 -2433.9,-682.6 -3905.7,-1698.5 C 22955.7,10079 22260.7,9537 21455.9,8909.4 19153.2,7113.5 15673.2,4399.6 13760.1,3834 12877,3572.9 11995.4,3440.5 11139.8,3440.5 9458.15,3440.4 8250.75,3939.9 7533.99,4359 l -13.85,8.1 -15.84,-2.5 c -322.03,-50.3 -560.88,-72.7 -774.44,-72.7 -486.56,0 -858.78,124.8 -1171.4,392.7 -184.76,158.4 -204.55,396.2 -60.5,727 129.72,297.8 365.96,615.8 574.38,896.4 88.23,118.7 171.56,230.9 237.54,329.5 377.83,564.9 654.44,1684.7 585.12,2108.3 l -7.73,47.2 -46.71,-10.6 c -67.61,-15.3 -168.72,-23.1 -300.5,-23.2 -768.51,0 -2408.91,264.1 -3510.44,565.2 -534.95,146.2 -703.31,337.9 -750.35,472.9 -47.75,137.1 12.2,261.1 70.9,341 l 23.66,32.2 -29.15,27.4 c -20.34,19 -2039.336,1938.1 -2252.0511,3076.2 -21.3711,114.3 80.1951,342.3 685.3831,779.5 413.888,299 996.138,648 1730.568,1037.2 1267.36,671.6 2658.34,1282.6 2957.47,1358.1 32.29,-1.4 65.14,-2.1 97.75,-2.1 329.8,0 668.55,70.7 953.85,198.9 274.58,123.5 455.55,281.5 496.47,433.5 145.44,529.8 1425.74,1382.8 2075.62,1382.8 19.43,0 38.33,-0.8 56.18,-2.4 623.99,-54.7 1136.28,-442 1184.18,-505.8 l 23.2,-31 34.1,18.3 c 74.5,39.9 561.7,114.3 1400.6,114.3 730.6,0 1555.1,-56.8 2384.5,-164.3 2204.8,-285.9 4409.7,-1226.5 6019.5,-1913.4 903.8,-385.6 1556.9,-664.2 1910.2,-699.5 l 34.4,-3.5 12.2,32.3 c 117.7,310.9 1831.9,1044 2823.3,1044 168,0 302.7,-21.9 401.3,-65 -66.8,-88.6 -189.3,-220.5 -328,-369.8 -360.8,-388.5 -854.9,-920.6 -911,-1273.1 l -5.3,-33.1 30.2,-14.6 c 604.6,-291.6 1580.9,-487.5 2429.5,-487.5 435.1,0 795.2,51.3 1041.5,148.3 223.6,88.1 561.6,423.9 1029.2,888.6 1092.7,1085.7 2907.8,2889.3 5347.1,3512.8 -161.1,-196.7 -307.7,-439.1 -473.2,-712.7 z M 28596,15208.7 c -442.7,-439.9 -792.4,-787.4 -998.7,-868.6 -235.9,-93 -584.6,-142.1 -1008.5,-142.1 -821.7,0 -1763.4,185.7 -2358.9,463.7 76.9,326.8 540.2,825.7 881.6,1193.2 171.8,185.1 307.6,331.2 366.7,423.6 l 25.5,39.8 -41,23.5 c -114.8,65.9 -279.8,99.2 -490.6,99.2 -447,0 -1107.1,-152.9 -1765.7,-409 -473.8,-184.3 -1004.7,-449.9 -1126.2,-660.5 -349.1,47.5 -1015.6,331.9 -1852.8,689.1 -1614.7,688.9 -3826.2,1632.4 -6043.3,1919.8 -833.2,108 -1661.7,165.1 -2396.1,165.1 -701.4,0 -1243.2,-54.5 -1410.5,-111.4 -124.6,117.8 -622.74,462.5 -1223.7,515.2 -20.47,1.8 -42.02,2.8 -64.06,2.8 -317.18,0 -806.18,-194.2 -1276.15,-506.7 -480.77,-319.6 -812.12,-671.9 -886.41,-942.6 -69.01,-256.3 -692.55,-565.9 -1363.38,-565.9 -33.44,0 -67.13,0.8 -100.15,2.3 l -6.37,0.3 -6.22,-1.5 C 5160.7,16468.3 3748.22,15849.7 2466.4,15170.4 1728.3,14779.3 1142.49,14428.1 725.25,14126.7 201.387,13748.2 -34.5156,13463.9 4.0625,13257.5 208.023,12166.3 2007.3,10398 2255,10159 c -84,-129.6 -105.08,-264.2 -60.81,-391.3 78.77,-226.1 351.85,-404.5 811.67,-530.2 1107.75,-302.8 2759.25,-568.4 3534.2,-568.3 110.69,0 201.79,5.4 271.77,16.2 18.53,-202.3 -29.4,-547.1 -129.15,-919.7 -115.94,-433.2 -279.12,-826.1 -447.69,-1078.1 -64.74,-96.8 -147.43,-208.1 -234.97,-325.9 -211.31,-284.4 -450.82,-606.8 -584.66,-914.2 -161.94,-371.8 -134.31,-643.8 84.47,-831.3 329.88,-282.7 720.73,-414.4 1230.03,-414.4 214.87,0 453.64,22 772.52,71.3 728.03,-423 1946.41,-922.8 3637.42,-922.7 864.3,0 1754.5,133.6 2645.9,397.2 853.7,252.4 2067.2,931.2 3709.8,2075.3 1395.5,971.9 2848.4,2105 4015.9,3015.5 803.6,626.7 1497.6,1168 1934.8,1469.7 1458,1006.4 3006.9,1682.6 3854.5,1682.6 63.7,0 119.2,1.7 172.3,-6.4 1040.6,-1781.6 2125.5,-2162.1 2850.5,-2162 558.7,0.1 959.3,222.6 1107.9,354 l 46.4,41 -53.3,31.5 c -52.5,31 -520.7,324.2 -799.2,1058.4 -97.6,257.4 -233.9,406.5 -365.7,550.6 -202.3,221.4 -393.4,430.4 -393.4,1032.6 0,910.1 801.3,1672.1 1910.3,2726.7 88.6,84.3 179.3,170.5 271.8,258.9 803.3,767.8 1224.1,1463.4 1562.2,2022.3 194.8,322 363,600.1 556.8,806.2 l 102.3,108.9 -145.5,-34.2 C 31590.3,18183.9 29715.9,16321.5 28596,15208.7"
         style="fill:#020202;fill-opacity:1;fill-rule:nonzero;stroke:none"
         id="path50" />
      <path
         d="m 4842.17,8982.5 c -16.33,-103.3 -279.18,-1082.7 -413.88,-1165.8 -4.84,-3.1 -9.57,-4.9 -14.07,-5.4 -129.52,-16.9 -867.17,608.1 -1576.67,1666.7 l 1678.59,-414.9 326.03,-80.6"
         style="fill:#ffffff;fill-opacity:1;fill-rule:nonzero;stroke:none"
         id="path52" />
      <path
         d="m 4842.17,8982.5 c -16.33,-103.3 -279.18,-1082.7 -413.88,-1165.8 -174.33,269.7 -452.05,764.8 -475.81,1109.5 l 563.66,136.9 326.03,-80.6"
         style="fill:#bcb7b7;fill-opacity:1;fill-rule:nonzero;stroke:none"
         id="path54" />
      <path
         d="m 4634.71,8399.4 c -147.06,-464.8 -215.03,-533.7 -228.48,-543.4 -41.43,3.4 -220.34,108.3 -539.19,425.3 -334.81,332.9 -687.13,766.8 -992.07,1221.8 l -74.84,-50.1 c 310.89,-463.9 670.13,-905.6 1011.55,-1243.7 106.68,-105.6 458.79,-443.3 598.51,-443.3 3.41,0 6.71,0.2 9.86,0.6 49.76,6.5 94.53,64.9 154.55,201.7 41.2,93.8 87.88,222.1 138.73,381.1 89.82,280.8 164.33,569.1 173.34,626.1 l -89,14 c -7.22,-45.7 -76.28,-316.1 -162.96,-590.1"
         style="fill:#000000;fill-opacity:1;fill-rule:nonzero;stroke:none"
         id="path56" />
      <path
         d="m 6463.89,7698.6 c -3.94,0.8 -7.88,1.6 -11.71,2.4 -1207.28,239.7 -1621.5,1096.6 -1694.47,1382.9 l 1379.81,-121.3 861.31,-75.8 c 5.63,-16.9 -163.3,-839 -534.94,-1188.2"
         style="fill:#ffffff;fill-opacity:1;fill-rule:nonzero;stroke:none"
         id="path58" />
      <path
         d="m 6463.89,7698.6 c -3.94,0.8 -7.88,1.6 -11.71,2.4 -5.3,206.4 -68.14,688.9 -547.67,1161.3 l 233.01,100.3 861.31,-75.8 c 5.63,-16.9 -163.3,-839 -534.94,-1188.2"
         style="fill:#bcb7b7;fill-opacity:1;fill-rule:nonzero;stroke:none"
         id="path60" />
      <path
         d="m 6956.09,8872.5 c -2.5,7.5 -2.19,13.4 -2.14,14.1 -3.67,-54.3 -169.1,-805.1 -504.43,-1139.2 C 5361.98,7968.1 4895.98,8723.8 4801.36,9095 l -87.31,-22.3 c 45.68,-179.2 184.03,-465.4 435.35,-731.4 332.54,-351.9 771.91,-583 1305.89,-686.9 l 22.64,-4.4 16.8,15.8 c 200.4,188.3 339.34,504.5 420.63,736.6 47.73,136.3 79.79,254.7 98.27,330 35.7,145.3 31.03,159.4 27.94,168.6 l -85.48,-28.5"
         style="fill:#000000;fill-opacity:1;fill-rule:nonzero;stroke:none"
         id="path62" />
      <path
         d="m 27466.7,12026.4 c -744.1,93.9 -2376.4,-534.5 -4037.6,-1681.2 C 21732.2,9174 16371.6,4556.6 13781.3,3790.8 11199.2,3027.3 8997.6,3461.5 7533.55,4312.1 c -4.62,2.6 -9.24,5.3 -13.86,8 -720.76,-180.2 -1757.19,-221.4 -2177.27,371.6 -282.89,399.4 161.61,981.2 562.99,1481.9 141.9,176.9 278.51,343.8 375.47,488.9 295.74,442.2 529.65,1233.9 578.75,1746.9 12.73,131.5 13.07,244.8 -0.67,329.1 -413.2,-94 -1901.92,-104.3 -3165.39,221.4 -251.71,64.8 -494.52,143 -718.06,236.6 -321.19,134.3 -523.91,254.8 -644.19,365.8 -248.32,228.7 -145.61,416.9 -9.01,602.7 -51.69,48.4 -159.01,152.5 -300.35,296.6 -478.3,487.9 -1345.577,1435.2 -1756.073,2238.6 -91.449,178.9 -160.258,350.8 -197.0862,508.8 734.5042,430.7 2073.0992,855.3 3704.3892,582.4 1884.57,-315.4 2567.72,-1028.6 4249.57,-1141.2 1681.75,-112.6 2109.74,347.2 2740.34,623.1 320.5,140.3 775,344.5 1255.3,465.7 464.7,117.1 953.4,156.4 1368.8,-15.2 844.6,-349.1 1137.4,-901 1238.8,-1379.6 101.3,-478.6 -123.9,-996.7 -56.3,-1221.9 67.5,-225.3 596.8,-1903.3 2680.3,-2714.2 173.3,-38.8 339,-66.2 497.1,-84 104.2,-11.7 205.1,-19.1 302.6,-22.9 1341.5,-52.5 2049.6,591.2 2049.6,591.2 675.7,450.5 3832.7,2391.3 4703.7,2856.8 798.2,426.6 2302.3,727 2663.7,277.2"
         style="fill:#bfc6be;fill-opacity:1;fill-rule:nonzero;stroke:none"
         id="path64" />
      <path
         d="m 12106.5,10886.8 c 189,480.4 418.4,1049.4 418.4,1049.4 -69.3,43.3 -135.4,93 -195.2,146.6 105.5,-77 209.1,-126 253.1,-130.9 -13.4,-59.9 -197.6,-489.8 -476.3,-1065.1 z m -935.1,280.5 c -645.8,-811.9 -4300.51,-2834.4 -7751.99,-1820.7 -424.49,124.7 -866.77,295.4 -878.39,615.7 300.24,-112.6 2102.19,-503 2995.64,-97.6 -946.01,-217.7 -2447.63,-15 -2913.09,285.3 30.07,-7.5 225.24,-60.1 232.78,-15.1 -474.84,112.2 -1549.37,1218.5 -2089.838,2264.4 -80.485,183.3 -114.754,329.8 -91.254,434.8 84.465,377.3 1948.312,536.8 2834.292,461.7 885.86,-75.1 1914.52,-450.4 2980.58,-1043.6 1066.17,-593.1 3821.67,-292.8 4497.37,277.8 675.7,570.7 927.2,-427.9 183.9,-1362.7 z m 6575.7,-2843.2 c -158.1,17.8 -323.8,45.2 -497.1,84 -2083.5,810.9 -2612.8,2488.9 -2680.3,2714.2 -67.6,225.2 157.6,743.3 56.3,1221.9 -101.4,478.6 -394.2,1030.5 -1238.8,1379.6 -415.4,171.6 -904.1,132.3 -1368.7,15.1 -480.3,-121.1 -934.7,-325.4 -1255.4,-465.6 -630.6,-275.9 -1058.59,-735.7 -2740.34,-623.1 -1681.85,112.6 -2365,825.8 -4249.57,1141.2 C 2141.9,14064.3 803.313,13639.7 68.8086,13209 41.4414,13193 333.645,12496.2 867.465,11784.2 1201.24,11339 2324.9,10168.1 2322.31,10165 c -483.32,-581.9 411.1,-866.7 626.33,-957.3 981.26,-412.6 2109.19,-609 3163.18,-526.1 2060.13,162 5127.38,1034.5 5699.68,1614.4 C 11230.8,9166.2 10434.6,7811.9 9831.2,7439.6 8965.27,6905.4 6954.01,6152.5 5905.41,6173.6 5582.53,5770.8 5231.72,5315.5 5254.13,4945 c 5.41,-90.1 33,-175.1 88.29,-253.3 420.08,-593 1456.51,-551.8 2177.27,-371.6 4.62,-2.7 9.24,-5.4 13.86,-8 1.01,28.6 0.45,46.8 0.45,46.8 265.22,19.4 959.06,296.1 1573.29,657 298.21,175.3 577.74,370.4 780.22,565.5 168.89,-67.6 -225.23,-540.6 -225.23,-540.6 855.92,259.1 2894.32,3457.4 3322.22,5079.2 45.1,-405.5 -563.1,-2162.3 -698.2,-2432.6 247.8,112.6 698.2,968.5 698.2,968.5 -157.6,-1306.4 -1441.5,-3130.8 -1644.2,-3491.2 2370.8,-422.6 5341.4,1613.8 6709.4,3136.5 -97.5,3.8 -198.4,11.2 -302.6,22.9"
         style="fill:#d5ded4;fill-opacity:1;fill-rule:nonzero;stroke:none"
         id="path66" />
      <path
         d="m 7534,4358.9 c 0,0 0.56,-18.2 -0.45,-46.8 -4.62,2.6 -9.24,5.3 -13.86,8 -720.76,-180.2 -1757.19,-221.4 -2177.27,371.6 -55.29,78.2 -82.88,163.2 -88.29,253.3 l 4.73,17 C 5900.79,3813.3 8121.53,4575.9 9107.29,5015.9 8493.06,4655 7799.22,4378.3 7534,4358.9"
         style="fill:#bfc6be;fill-opacity:1;fill-rule:nonzero;stroke:none"
         id="path68" />
      <path
         d="m 27300.5,12080.7 c -864.3,0 -2433.8,-682.6 -3905.5,-1698.4 C 22955.7,10079 22260.7,9537 21455.9,8909.4 19153.2,7113.5 15673.2,4399.6 13760.1,3834 12877,3572.9 11995.4,3440.5 11139.8,3440.5 c -1681.71,0 -2889.09,499.4 -3605.82,918.5 l -15.85,9.2 -17.81,-4.4 c -213,-53.3 -543.41,-116.8 -907.92,-116.8 -405.23,0 -946.13,81.7 -1221.7,470.8 -274.36,387.3 215.14,996.6 608.46,1486.2 125.14,155.8 243.34,302.9 330.72,433.5 377.83,564.9 654.43,1684.7 585.12,2108.3 l -7.73,47.2 -46.71,-10.6 c -154.44,-35.1 -454.59,-56 -802.91,-56 -429.38,0 -1918.52,36.9 -3053.2,511.6 -462.89,193.7 -711.06,371.4 -758.68,543.1 -31.49,113.6 24.25,220.9 124.4,357.2 l 23.66,32.2 -29.15,27.4 c -19.48,18.2 -1937.383,1840.9 -2232.504,2989 361.957,207.2 1286.434,645.6 2623.874,645.6 338.2,0 681.82,-28.8 1021.3,-85.6 872.92,-146 1478.57,-374.8 2064.28,-596 660.37,-249.5 1284.11,-485.1 2189.65,-545.7 173.62,-11.6 340.56,-17.5 496.2,-17.5 1018.94,0 1497.12,251.2 1919.12,472.9 116.8,61.4 227.2,119.4 346.1,171.4 l 52.7,23.1 c 490.2,214.9 1231.1,539.7 1916.3,539.7 230.4,0 438.9,-37.9 619.8,-112.6 683.3,-282.5 1079.8,-723.2 1212,-1347.3 55.7,-263.4 8.1,-547.4 -30.2,-775.7 -30.8,-183.7 -57.5,-342.4 -25.2,-449.9 52.4,-174.6 214.8,-636.3 591,-1151.1 520.7,-712.6 1232.7,-1248.2 2116.1,-1592 l 6.5,-2 c 328.9,-73.8 653.4,-111.2 964.3,-111.1 649.3,0 1137,163.9 1431.8,301.4 303.1,141.3 467.4,281.6 490.7,302.2 663.9,442.2 3833.7,2391.2 4697.3,2852.8 536.8,286.9 1344.1,495.2 1919.4,495.2 263.8,0 511,-43.5 639.3,-125.2 -9.5,0.2 -64.3,1.2 -74,1.2 z m -565.3,214.1 c -588.4,0 -1413.5,-212.8 -1961.9,-505.9 -866.3,-463 -4048.5,-2419.7 -4707.5,-2859 l -5.2,-4.1 c -1.7,-1.5 -164.6,-147.4 -474.7,-291.5 -285.9,-132.8 -759.2,-291.1 -1389.9,-291.2 -303.3,0 -620,36.4 -941.3,108.3 -865.7,337.5 -1563.1,862.4 -2072.9,1560 -367.9,503.5 -526.4,953.6 -577.4,1123.8 -26.2,87.3 -1.2,236.4 27.7,409.1 39.6,235.8 88.8,529.2 29.5,809.2 -60.7,286.4 -178.2,541.1 -349.5,757 -216.1,272.6 -524.4,493 -916.2,654.9 -191.8,79.3 -411.9,119.5 -654.2,119.5 -704.1,0 -1455.4,-329.3 -1952.5,-547.3 l -52.6,-23 c -121.8,-53.3 -233.6,-112.1 -351.9,-174.2 -432.91,-227.4 -880.51,-462.6 -1877.22,-462.6 -153.64,0 -318.56,5.8 -490.19,17.3 -892.21,59.7 -1509.88,293 -2163.82,540 -589.77,222.8 -1199.62,453.2 -2081.25,600.7 -344.38,57.6 -693,86.8 -1036.17,86.8 -1396.86,0 -2352.437,-471.9 -2698.4445,-674.8 L 9,13231 l 7.5156,-32.3 C 271.152,12104.7 2008.78,10396.6 2254.39,10159.6 c -82.7,-116.8 -157.23,-251.8 -115.44,-402.5 56.25,-203 313.87,-394.3 810.72,-602.2 1150.16,-481.2 2654.35,-518.6 3087.98,-518.6 326.68,0 603.93,17.5 774.24,48.4 18.35,-202.4 -29.58,-546.9 -129.21,-919 -115.94,-433.2 -279.12,-826.1 -447.69,-1078.1 -85.18,-127.4 -202.2,-273 -326.07,-427.2 -203.95,-253.9 -435.11,-541.6 -574.94,-814.8 -166.34,-324.9 -178.37,-580.1 -36.8,-779.9 297.83,-420.5 868.73,-508.8 1295.22,-508.8 363.64,0 693.67,61.5 911.95,115.1 728.22,-422.8 1945.82,-921.6 3635.45,-921.6 864.2,0 1754.4,133.6 2645.8,397.2 853.8,252.4 2067.3,931.2 3709.9,2075.3 1395.5,971.9 2848.4,2105 4015.8,3015.5 803.7,626.7 1497.7,1168 1934.9,1469.7 1457.9,1006.3 3006.8,1682.5 3854.3,1682.5 54.3,0 105.5,-3 174.7,-6.6 l 110.5,-13.9 -49.8,88.8 c -128.1,159.4 -425.7,235.9 -800.7,235.9"
         style="fill:#020202;fill-opacity:1;fill-rule:nonzero;stroke:none"
         id="path70" />
      <path
         d="m 7250.11,4308.1 38.48,-81.1 c 80.14,14.8 170.29,35.6 265.2,61.6 847.15,232.3 1153.83,514.6 1153.83,514.6 -118.29,-73 -970.97,-404.9 -1457.51,-495.1"
         style="fill:#020202;fill-opacity:1;fill-rule:nonzero;stroke:none"
         id="path72" />
      <path
         d="M 12572.5,11939.8 C 12346.3,11082.6 11271.7,8721.3 10349.3,7586 9647.07,6721.9 7697.52,5239.3 6514,5097.6 c -492.59,-59.1 -852.41,114.1 -934.51,660.5 229.52,326.6 522.22,649.3 692.95,904.4 369.61,552.7 642.71,1651 579.08,2069.2 129.52,37.4 279.64,87.8 445.75,149.4 232,53.5 502.28,120.8 787.55,198.7 763.78,208.4 1633.99,492.5 2157.48,792.4 856.5,490.9 1668,1236.7 2036.8,1900.1 59.9,71.9 47.2,177.3 81.8,242.5 4.2,2.3 8.5,4.5 12.8,6.4 60.9,-43.5 128.6,-64.3 198.8,-81.4"
         style="fill:#4c0404;fill-opacity:1;fill-rule:nonzero;stroke:none"
         id="path74" />
      <path
         d="M 12572.5,11939.8 C 12346.3,11082.6 11271.7,8721.3 10349.3,7586 9647.07,6721.9 7697.52,5239.3 6514,5097.6 c 3.27,107.9 11.04,223.9 24.55,348 94.04,861.4 1538.72,2275 1546.27,3634.2 763.78,208.4 1633.99,492.5 2157.48,792.4 856.5,490.9 1668,1236.7 2036.8,1900.1 59.9,71.9 47.2,177.3 81.8,242.5 4.2,2.3 8.5,4.5 12.8,6.4 60.9,-43.5 128.6,-64.3 198.8,-81.4"
         style="fill:#260202;fill-opacity:1;fill-rule:nonzero;stroke:none"
         id="path76" />
      <path
         d="m 11022.9,8541.9 c -228.1,-392.9 -697,-987.4 -1093.15,-1393.5 -55.97,-57.2 -110.37,-110.6 -162.4,-159.3 -374.12,-349.4 -1535.56,-1241.5 -2457.92,-1656.2 -140.09,265.3 -226.59,650.8 -256.2,875.5 465.56,405.4 578.18,1310.1 994.87,1644.2 101.59,81.5 202.94,136.3 304.53,175 231.99,88.6 465.11,93.4 705.22,140.3 585.96,650.2 1420.05,647.6 1965.05,374"
         style="fill:#f4a6a6;fill-opacity:1;fill-rule:nonzero;stroke:none"
         id="path78" />
      <path
         d="m 9929.75,7148.4 c 458.85,1377.2 -806.47,920.7 -999.5,471.4 -21.4,39.2 -59.69,339 -577.62,407.8 231.99,88.6 465.11,93.4 705.22,140.3 585.96,650.2 1420.05,647.6 1965.05,374 -228.1,-392.9 -697,-987.4 -1093.15,-1393.5"
         style="fill:#e88585;fill-opacity:1;fill-rule:nonzero;stroke:none"
         id="path80" />
      <path
         d="m 10104.5,8752.4 c -412.44,-41.2 -782.05,-228.9 -1069.86,-543.1 -73.18,-13.8 -146.92,-24.1 -218.38,-34 -260.3,-36.2 -529.46,-73.6 -796.38,-287.6 -213.73,-171.4 -345.81,-475.5 -485.64,-797.4 -138.54,-318.9 -281.8,-648.8 -510.56,-848 l -18.24,-15.9 3.16,-24 c 25.34,-192.2 108.77,-595.6 257.79,-882.1 l 80.41,39.8 c -120.7,231.5 -208.58,568.1 -245.66,830.6 233.27,213.4 376.8,543.9 515.74,863.7 135.26,311.4 263.02,605.6 459.36,763 247.55,198.5 492.79,232.6 752.42,268.7 77.42,10.7 157.48,21.9 237.88,37.6 l 14.75,2.9 10.06,11.1 c 545.55,605.5 1349.15,642.3 1902.95,368.2 l 40.6,80.4 c -278.5,137.6 -611.7,197.8 -930.4,166.1"
         style="fill:#020202;fill-opacity:1;fill-rule:nonzero;stroke:none"
         id="path82" />
      <path
         d="m 8233.36,5817.1 c -146.97,-90.3 -412.86,-228.8 -685.74,-357.6 -287.63,-135.3 -582.91,-259.8 -754.88,-304.8 50.79,500.5 68.47,1051.2 172.3,1110.9 2.71,1.5 5.97,2.8 9.91,3.6 126.59,30.3 886.54,-252.9 1258.41,-452.1"
         style="fill:#ffffff;fill-opacity:1;fill-rule:nonzero;stroke:none"
         id="path84" />
      <path
         d="m 7547.62,5459.5 c 67.35,278.6 -117.12,594.3 -573.23,771.4 l 0.56,38.3 c 126.59,30.3 886.54,-252.9 1258.41,-452.1 -146.97,-90.3 -412.86,-228.8 -685.74,-357.6"
         style="fill:#bcb7b7;fill-opacity:1;fill-rule:nonzero;stroke:none"
         id="path86" />
      <path
         d="m 7711.53,6101.6 c -174.89,69.2 -343.31,128.3 -474.24,166.4 -208.98,60.9 -265.15,53.6 -294.7,36.6 -96.35,-55.4 -122.48,-314.2 -163.96,-805.3 -9.6,-113.6 -19.46,-230.1 -31.03,-343.8 30.93,6.2 61.85,13.6 92.78,22.4 10.29,104.4 19.27,210.3 28.02,313.9 16.13,190.8 31.36,371.1 52.41,508.4 28.39,185.1 57.37,219.4 65.47,225.5 44.17,10.9 290.78,-47.9 709.49,-214.8 199.63,-79.6 361.88,-153.6 479.98,-214.7 31.18,17.9 63.11,33.6 93.99,52.4 -200.17,109.2 -482.95,223.2 -558.21,253"
         style="fill:#000000;fill-opacity:1;fill-rule:nonzero;stroke:none"
         id="path88" />
      <path
         d="m 9887.29,7103.6 c -158.79,-161.2 -437.86,-388.1 -722.23,-607.2 -287.29,-221 -580.21,-434.1 -760.74,-563.2 30.41,354.7 20.5,1385.9 120.5,1444.5 6.31,3.6 15.43,6.1 27.25,7.3 179.75,18.7 965.94,-232.6 1335.22,-281.4"
         style="fill:#ffffff;fill-opacity:1;fill-rule:nonzero;stroke:none"
         id="path90" />
      <path
         d="m 9887.29,7103.6 c -158.79,-161.2 -437.86,-388.1 -722.23,-607.2 -21.96,313.7 -233.68,628.2 -615.58,842.9 l 2.59,45.7 c 179.75,18.7 965.94,-232.6 1335.22,-281.4"
         style="fill:#bcb7b7;fill-opacity:1;fill-rule:nonzero;stroke:none"
         id="path92" />
      <path
         d="m 9233.78,7294.6 c -466.97,117.7 -663.92,161.6 -731.71,122 -77.22,-45.2 -99.08,-305.2 -121.94,-1014.8 -5.98,-185.4 -12.57,-389.6 -23.29,-494.6 l 94.96,56.1 c 7.25,100.8 12.26,245.7 18.38,435.6 6.47,201 13.81,428.8 27.21,610.2 18.95,256.6 42.93,316.5 52.09,330.2 63.8,18.8 409.09,-68.3 662.3,-132 233.91,-59 473.53,-119.3 643.65,-144.6 l 81.49,80.5 c -161.13,14.9 -446.59,86.8 -703.14,151.4"
         style="fill:#000000;fill-opacity:1;fill-rule:nonzero;stroke:none"
         id="path94" />
      <path
         d="m 10893.8,8360.1 c -87,-132.7 -221.7,-324.2 -367.7,-520.3 -195,-261.8 -410.3,-532.3 -559.98,-683.3 65.78,353.4 92.78,1323.2 200.08,1367.1 105.9,43.3 458.5,-110.8 727.6,-163.5"
         style="fill:#ffffff;fill-opacity:1;fill-rule:nonzero;stroke:none"
         id="path96" />
      <path
         d="m 10893.8,8360.1 c -87,-132.7 -221.7,-324.2 -367.7,-520.3 -6.9,263.9 -147.8,490.2 -359.9,683.8 105.9,43.3 458.5,-110.8 727.6,-163.5"
         style="fill:#bcb7b7;fill-opacity:1;fill-rule:nonzero;stroke:none"
         id="path98" />
      <path
         d="m 10579.6,8491.5 c -217.1,66.1 -354.1,105 -430.4,73.8 -80.6,-33 -110.6,-230.1 -165.6,-846.2 -19.91,-223.2 -43.91,-492.2 -72.42,-605.8 l 113.42,123.7 c 16.4,117.5 31.1,276.5 48.7,474.1 16,179.4 32.6,364.8 52.7,511.5 28.2,205.9 53.2,251.2 60.6,260.5 54.2,17.4 220.1,-33.1 366.8,-77.8 109.4,-33.2 221.2,-67.2 323.1,-87.8 l 51.9,82 c -107.6,18.7 -234,57.1 -348.8,92"
         style="fill:#000000;fill-opacity:1;fill-rule:nonzero;stroke:none"
         id="path100" />
      <path
         d="m 11712.4,9815.1 c -68.3,-127.6 -176.8,-322.3 -290,-523.7 -148.3,-263.4 -304.5,-538.2 -389.4,-688.8 14,370.7 31.2,1174.1 149.6,1247.1 3.4,2.1 6.9,4 10.5,5.8 118.7,60.6 314,-35.3 519.3,-40.4"
         style="fill:#ffffff;fill-opacity:1;fill-rule:nonzero;stroke:none"
         id="path102" />
      <path
         d="m 11712.4,9815.1 c -68.3,-127.6 -176.8,-322.3 -290,-523.7 -6.2,146 -49.9,396.7 -256.7,524.5 l 27.4,39.6 c 118.7,60.6 314,-35.3 519.3,-40.4"
         style="fill:#bcb7b7;fill-opacity:1;fill-rule:nonzero;stroke:none"
         id="path104" />
      <path
         d="m 11485.5,9892.8 c -123,25.2 -239.2,49 -326.5,-4.8 -108.1,-66.5 -142.1,-464.7 -167.2,-1176.3 -2.2,-63.4 -4.3,-122.5 -6.5,-170.3 l 94.7,114.3 c 0.6,16.7 1.2,34.2 1.8,52.9 7,196.1 16.4,464.8 37.3,689.6 33.6,360.7 78.5,407.4 87.1,413.1 57,35 151.6,15.7 261.2,-6.8 65,-13.3 134.4,-27.4 206.2,-32.6 l 37.3,88.4 c -77.3,2.2 -154.3,17.9 -225.4,32.5"
         style="fill:#000000;fill-opacity:1;fill-rule:nonzero;stroke:none"
         id="path106" />
      <path
         d="m 12524.9,11936.1 c -115.1,-426.7 -430.2,-1199.8 -807,-1974.7 -280.1,-576.1 -835,-1647.1 -1403.6,-2347 C 9932.55,7144.6 9211.01,6523.9 8476.08,6033.1 7605.5,5451.7 6846.69,5131.6 6339.35,5131.6 c -0.03,0 -0.1,0 -0.13,0 -411.37,0 -644.55,201.4 -712.37,615.5 110.04,155.3 233.14,308.5 352.3,456.8 125.15,155.8 243.35,303 330.73,433.6 362.13,541.4 634.66,1609.5 591.03,2061.7 1.32,0.4 2.69,0.8 4.02,1.2 l -64.13,75 c -0.57,-0.1 -1.17,-0.3 -1.75,-0.5 l -37.97,-10.9 5.94,-39.1 c 62.57,-411.7 -208.79,-1494.3 -572.03,-2037.3 -85.19,-127.4 -202.2,-273 -326.08,-427.2 C 5785.07,6106.2 5657,5946.8 5542.65,5784 l -10.37,-14.7 2.69,-17.9 c 36.3,-241.5 127.85,-424.4 272.11,-543.6 133.6,-110.3 312.63,-166.3 532.12,-166.3 0.09,0 0.07,0 0.16,0 708.29,0 1674.11,574.3 2186.76,916.7 741.8,495.4 1471.14,1123.2 1858.08,1599.4 574.4,706.9 1132.9,1784.8 1414.7,2364.4 380.4,782.3 698.9,1564.8 814.6,1996.5 l -88.6,17.6"
         style="fill:#020202;fill-opacity:1;fill-rule:nonzero;stroke:none"
         id="path108" />
      <path
         d="m 8967.53,9301.4 c -43.93,-347.7 -163.19,-1071 -346.98,-1141 -216.34,-82.5 -1205.14,287.4 -1673.98,605.4 269.95,48 733.27,167.7 1161.11,286.1 354.19,97.8 684.05,194.9 859.85,249.5"
         style="fill:#ffffff;fill-opacity:1;fill-rule:nonzero;stroke:none"
         id="path110" />
      <path
         d="m 8967.53,9301.4 c -43.93,-347.7 -163.19,-1071 -346.98,-1141 36.49,122.6 -105.98,535.7 -512.87,891.5 354.19,97.8 684.05,194.9 859.85,249.5"
         style="fill:#bcb7b7;fill-opacity:1;fill-rule:nonzero;stroke:none"
         id="path112" />
      <path
         d="m 8921.72,9298.5 c -15.68,-122.4 -40.45,-290 -73.68,-457.3 -108.9,-548.1 -213.93,-627.4 -243.53,-638.7 -180.89,-68.9 -1085.76,249.1 -1576.64,562.9 l -127.65,-22.1 C 7310.46,8458.5 8181.8,8104 8537.03,8104 c 40.3,0 73.97,4.5 99.55,14.3 42.74,16.3 172.77,65.8 299.85,705.5 37.28,187.7 64.73,379.7 80.32,508.7 l -95.03,-34"
         style="fill:#000000;fill-opacity:1;fill-rule:nonzero;stroke:none"
         id="path114" />
      <path
         d="m 10477.1,10016.5 c -4.3,-162.2 -38.7,-446.3 -80.5,-635.1 -16.9,-76.6 -35.1,-137.4 -53,-168 -1.1,-1.9 -2.3,-3.7 -3.9,-5.5 -7,-8.7 -18.4,-16.5 -33.6,-23.2 -184.3,-83.8 -928.53,-40.4 -1324.27,115.4 225.24,83.6 541.14,229.2 847.68,380.6 236.89,117.1 468.09,237.7 647.59,335.8"
         style="fill:#ffffff;fill-opacity:1;fill-rule:nonzero;stroke:none"
         id="path116" />
      <path
         d="m 10477.1,10016.5 c -4.3,-162.2 -38.7,-446.3 -80.5,-635.1 -16.5,-65.8 -35.3,-125.3 -56.9,-173.5 -9.5,-21.2 -19.4,-40.1 -29.9,-56.5 0,6.3 -0.9,17.7 -3.7,33.3 -16.8,90.2 -101.3,319.9 -476.59,496 236.89,117.1 468.09,237.7 647.59,335.8"
         style="fill:#bcb7b7;fill-opacity:1;fill-rule:nonzero;stroke:none"
         id="path118" />
      <path
         d="m 10430.9,9993.1 c -10.4,-220.6 -67.6,-656.5 -126,-756.7 -22.2,-29.4 -226.3,-70.1 -617.66,-35.7 -255.45,22.4 -487.71,68.9 -653.5,128.3 l -126.23,-45.7 c 262.77,-120.7 726.46,-185.4 1060.78,-185.4 118.51,0 220.81,8.2 292.01,24.8 65.2,15.2 104,36.8 122.2,68 57.2,97.9 100.2,410.6 112.1,504.1 10,79.3 27.2,230.9 27.6,341.8 l -91.3,-43.5"
         style="fill:#000000;fill-opacity:1;fill-rule:nonzero;stroke:none"
         id="path120" />
      <path
         d="M 12338.4,12063.5 C 11658.5,10418.4 9744.3,9322 6602.78,8744.1 L 6569,8661.5 c 812.74,129.6 1526.99,313.8 2181.06,526.5 913.63,297.2 1681.74,673.8 2277.94,1119.7 397,296.9 727.6,627.6 982.6,982.7 163.2,227.5 295.3,462.5 401.1,714.2 -24.4,20.5 -47.4,42.2 -73.3,58.9"
         style="fill:#020202;fill-opacity:1;fill-rule:nonzero;stroke:none"
         id="path122" />
      <path
         d="m 9103.4,8276.8 c -35.46,-40 -68.91,-81.2 -95.13,-125.7 -213.16,-362.4 -69.83,-546.2 -69.83,-546.2 -16.67,155.6 59.13,426.2 232.43,621.3 l -67.47,50.6"
         style="fill:#020202;fill-opacity:1;fill-rule:nonzero;stroke:none"
         id="path124" />
      <path
         d="m 23278.5,4854.3 c -2336.6,-655.6 -4393.3,1002.8 -5484.3,2387.9 -455,577.5 -742.1,1107.5 -811.7,1402.4 l 2950.7,882.2 c 6.8,-196.6 54,-409.2 132.8,-631.6 530.4,-1497 2493,-3443.9 3212.5,-4040.9"
         style="fill:#3b9cbc;fill-opacity:1;fill-rule:nonzero;stroke:none"
         id="path126" />
      <path
         d="m 20222.2,8468.2 c -953.5,818.4 -2575.2,-690.7 -2410,-1223.7 l -18,-2.3 c -455,577.5 -742.1,1107.5 -811.7,1402.4 l 2950.7,882.2 c 6.8,-196.6 54,-409.2 132.8,-631.6 29.1,-159.1 78.5,-309.5 156.2,-427"
         style="fill:#2786a0;fill-opacity:1;fill-rule:nonzero;stroke:none"
         id="path128" />
      <path
         d="m 19927.9,9539.3 c 0,0 -56.7,-233 38.1,-535.5 81.5,-260.3 216.8,-535.6 384.7,-830.1 243.2,-426.6 568.7,-889.5 967.5,-1375.9 716.7,-874 1479,-1592.8 1865.4,-1922.4 -1081.8,-279.2 -2191.1,-90 -3298.7,563.1 -1601.3,944.1 -2712.1,2595.8 -2858.5,3216.5 l -87.7,-20.7 c 149.5,-633.7 1277.4,-2316.5 2900.4,-3273.4 535.2,-315.5 1081,-527 1622.5,-628.5 251,-47.1 501.8,-70.6 751.4,-70.6 363.1,0 723.6,49.8 1077.7,149.2 l 82.7,23.2 -66.1,54.8 c -656.3,544.6 -3153.4,2929.9 -3379.4,4650.3"
         style="fill:#020202;fill-opacity:1;fill-rule:nonzero;stroke:none"
         id="path130" />
      <path
         d="m 25868.2,10713.1 c -691.3,-554.2 -1458.7,-202.2 -2123.6,6.9 -245,77.1 -476.1,134.9 -684.3,120.7 l 1734.3,1126.2 c 2.5,-127.5 51.6,-291.7 139.6,-459.7 176.2,-336.6 508.3,-688.9 934,-794.1"
         style="fill:#3b9cbc;fill-opacity:1;fill-rule:nonzero;stroke:none"
         id="path132" />
      <path
         d="m 24934.2,11507.2 c -513.7,197.8 -1264.7,-509 -1189.6,-787.2 -245,77.1 -476.1,134.9 -684.3,120.7 l 1734.3,1126.2 c 2.5,-127.5 51.6,-291.7 139.6,-459.7"
         style="fill:#2786a0;fill-opacity:1;fill-rule:nonzero;stroke:none"
         id="path134" />
      <path
         d="m 25130.7,11282.9 c -173.1,226.8 -287.4,495.6 -291.1,684.9 0,0 -116.4,-164.2 72,-514.8 170,-316.4 476.1,-631.1 857.7,-758.1 -576.1,-407.8 -1191.8,-203 -1788,-4.7 -179.5,59.6 -352.8,120.7 -519.7,155.1 -361,74.3 -398.3,-49.5 -398.3,-49.5 261.2,17.7 566.5,-83.7 889.5,-191.1 339,-112.8 703,-233.8 1067.9,-233.8 295.5,0 591.7,79.4 875.7,307 l 71.1,57.1 -88.5,21.8 c -275.6,68.1 -541.3,254.9 -748.3,526.1"
         style="fill:#020202;fill-opacity:1;fill-rule:nonzero;stroke:none"
         id="path136" />
      <path
         d="m 5600.44,12252.2 c -56.31,-168.9 -750.73,-161.4 -1069.89,75.1 -112.62,11.3 -304.07,-105.1 -307.79,-300.4 -17.9,21.3 -30.18,43.1 -37.61,64.9 -89.98,263.3 532.69,553.7 889.8,543.3 133.23,-3.9 243.71,-30.5 329.08,-70.7 162.17,-76.3 233.34,-201.5 196.41,-312.2"
         style="fill:#373836;fill-opacity:1;fill-rule:nonzero;stroke:none"
         id="path138" />
      <path
         d="m 5600.44,12252.2 c -56.31,-168.9 -750.73,-161.4 -1069.89,75.1 -112.62,11.3 -304.07,-105.1 -307.79,-300.4 -17.9,21.3 -30.18,43.1 -37.61,64.9 -13.63,192 189.09,332.6 296.64,350.9 115.43,19.7 208.58,-154.4 540.57,-179.2 326.6,-24.4 502.28,125.2 381.67,300.9 162.17,-76.3 233.34,-201.5 196.41,-312.2"
         style="fill:#9ca09c;fill-opacity:1;fill-rule:nonzero;stroke:none"
         id="path140" />
      <path
         d="m 5557.74,12266.5 c -11.43,-34.3 -107.94,-85.3 -327,-85.3 -197.14,0 -491.78,47.7 -673.32,182.3 l -9.98,7.4 -12.37,1.2 c -6.45,0.7 -13.17,1 -19.96,1 -86.57,0 -195.57,-51.6 -265.87,-142.8 114.83,188.5 538.24,360.1 806.75,360.1 5.94,0 11.81,-0.1 17.62,-0.3 211.54,-6.2 382.5,-73.8 457.32,-180.8 32.96,-47.2 42.23,-96.6 26.81,-142.8 z m -481.52,413.7 c -6.66,0.2 -13.4,0.2 -20.23,0.2 -314.08,0 -791.54,-200.9 -901.02,-435.5 -40.63,-87 -29.13,-172.4 33.27,-246.8 l 77.25,-92.2 2.31,120.2 c 2.98,154.4 150.67,256.8 247.16,256.9 199.7,-141.4 508.83,-191.9 715.78,-191.9 109.3,0 368.28,14.3 412.47,146.9 24.44,73.3 10.79,152.5 -38.43,222.9 -91.07,130.3 -288.66,212.3 -528.56,219.3"
         style="fill:#020202;fill-opacity:1;fill-rule:nonzero;stroke:none"
         id="path142" />
      <path
         d="m 1415.73,12631.4 c -234.1,118 -430.769,52.5 -447.664,-50.7 -16.89,-103.2 309.704,-369.8 630.674,-272.2 150.15,5.7 367.88,-217.7 390.41,-285.3 -78.83,281.6 -344.43,492.7 -573.42,608.2"
         style="fill:#373836;fill-opacity:1;fill-rule:nonzero;stroke:none"
         id="path144" />
      <path
         d="m 990.59,12583.5 c 270.29,-199.9 596.88,-166.1 633.48,-92.9 112.62,-59.1 275.92,-315.3 275.92,-315.3 0,0 -320.96,132.3 -391.35,115.4 -70.39,-16.9 -568.73,87.3 -518.05,292.8"
         style="fill:#9ca09c;fill-opacity:1;fill-rule:nonzero;stroke:none"
         id="path146" />
      <path
         d="m 1604.36,12353.7 c -2.44,0 -4.89,-0.1 -7.31,-0.1 l -5.84,-0.3 -5.58,-1.7 c -41.84,-12.7 -85.87,-19.1 -130.87,-19.1 -0.02,0 -0.03,0 -0.04,0 -167.27,0 -332.46,91.1 -409.18,181.2 -29.26,34.4 -33.75,55.1 -33.02,59.7 6.03,36.8 64.57,76 161.2,76 69.49,0 146.17,-20.2 221.73,-58.2 72.12,-36.4 258.59,-140.5 399.21,-306.4 -62.32,40.4 -129.13,68.9 -190.3,68.9 z m -168.35,317.9 c -85.61,49 -178.78,67.9 -262.29,67.9 -134.77,0 -235.282,-60.9 -250.107,-151.5 -6.281,-38.4 12.047,-84.1 53,-132.3 87.277,-102.7 274.117,-213.3 478.097,-213.3 0.02,0 0.03,0 0.05,0 51.67,0 102.39,7.1 150.86,21.2 126.48,-1.3 339.42,-206.6 398.54,-277 0,0 -57.71,392.8 -568.15,685"
         style="fill:#020202;fill-opacity:1;fill-rule:nonzero;stroke:none"
         id="path148" />
      <path
         d="m 12448.9,12048.8 c -196.7,98.5 -326.3,246.7 -355.5,406.5 -38.9,212.3 103.9,402.9 355.4,474.4 0,0 -287.3,11.4 -396.9,-187.7 -49.5,-90.1 -67.1,-194.1 -47.1,-302.9 40.3,-220.5 226,-443.3 575.6,-541.3 587.2,-164.6 843.3,16.4 843.3,16.4 -394.5,-33.7 -731.5,12.9 -974.8,134.6"
         style="fill:#020202;fill-opacity:1;fill-rule:nonzero;stroke:none"
         id="path150" />
      <path
         d="m 15995.2,10097.4 c -341.8,-1085.7 -779.3,-1369.7 -917.3,-1316.8 -16.7,6.4 -28.9,17.7 -36.1,33 -67.6,142.7 487.9,938.4 660.6,2079.7 133.7,883.6 69.7,1547.2 -254,2183 -5.3,10.6 -10.8,21.2 -16.3,31.8 12.4,-7.1 24.8,-15 37.1,-23.4 33.7,-23.5 67.1,-52.1 99.7,-85.4 446.2,-454.9 774.4,-1796.3 426.3,-2901.9"
         style="fill:#02273d;fill-opacity:1;fill-rule:nonzero;stroke:none"
         id="path152" />
      <path
         d="m 15077.9,8780.6 c -16.7,6.4 -28.9,17.7 -36.1,33 -67.6,142.7 487.9,938.4 660.6,2079.7 133.7,883.6 69.7,1547.2 -254,2183 l 20.8,8.4 49.3,19.7 c 17.3,-34.9 34.2,-70 50.4,-105.1 715.8,-1540.2 405.3,-3165.2 -491,-4218.7"
         style="fill:#021721;fill-opacity:1;fill-rule:nonzero;stroke:none"
         id="path154" />
      <path
         d="m 15952.3,10111 c -331.9,-1054.1 -726.5,-1291.4 -838.6,-1291.4 -16.6,0 -27.1,4.5 -31.3,13.3 -17,37.1 64.5,223.1 143.4,403 165,376.2 414.3,944.6 521.2,1650.6 127.4,842.2 73,1470.3 -184,2053.7 414.3,-460.1 730.9,-1744.1 389.3,-2829.2 z m -497.8,3036.2 -133.8,76.8 71.5,-136.8 c 324.4,-619.9 403.9,-1274 265.7,-2187.2 -105.1,-694.2 -351.5,-1256.1 -514.6,-1627.9 -126,-287.5 -175.9,-406.9 -142.3,-477.8 19.5,-41.1 60.6,-64.7 112.7,-64.7 v 0 c 115.7,0 272.9,112.9 420.4,302 189.6,243.2 363.9,607.1 504.1,1052.3 175.2,556.5 195,1239.8 54.5,1874.9 -128.6,581 -373.1,1036.4 -638.2,1188.4"
         style="fill:#020202;fill-opacity:1;fill-rule:nonzero;stroke:none"
         id="path156" />
      <path
         d="M 16836.1,10059.9 C 16641,9406.7 15980.2,8092.8 15732.5,8333 c -11.2,10.8 -20.4,22.3 -28.1,34.7 -162.4,262.4 441.5,875.6 771.3,1872.4 345.4,1043.6 180.2,1914.6 97.7,2477.7 412.8,-435.5 457.9,-2004.7 262.7,-2657.9"
         style="fill:#02273d;fill-opacity:1;fill-rule:nonzero;stroke:none"
         id="path158" />
      <path
         d="m 16513.2,9804.6 c -219.9,-531.4 -569,-1157.4 -808.8,-1436.9 -162.4,262.4 441.5,875.6 771.3,1872.4 345.4,1043.6 180.2,1914.6 97.7,2477.7 360.4,-1291.5 210.1,-2260 -60.2,-2913.2"
         style="fill:#021721;fill-opacity:1;fill-rule:nonzero;stroke:none"
         id="path160" />
      <path
         d="m 16793,10072.8 c -91.3,-305.5 -281.9,-745.1 -474.3,-1093.9 -256.1,-464.3 -435.2,-629.8 -517.4,-629.8 -14.1,0 -26,5.2 -37.5,16.3 -114,110.6 27.4,364.9 223,716.9 168.7,303.3 378.5,680.8 531.7,1143.6 311.7,941.8 210.8,1751.7 127.9,2308.3 121.9,-229.6 207.7,-603.9 241.5,-1067 38.3,-526 1,-1073.3 -94.9,-1394.4 z m -187,2675.9 -97.9,103.3 20.7,-140.8 c 5.2,-35.7 10.8,-72.5 16.5,-110.6 82.8,-549.1 207.8,-1378.9 -112.3,-2346.4 -150.5,-454.8 -358.1,-828.1 -524.9,-1128.1 -223.2,-401.5 -370.6,-666.7 -207,-825.4 28.1,-27.2 62.8,-41.7 100.2,-41.7 v 0 c 148.1,0 348.7,227.6 596.3,676.4 195.2,353.9 388.7,800.6 481.7,1111.6 98.8,330.7 137.5,890.7 98.4,1426.7 -26,357.2 -108.9,997.9 -371.7,1275"
         style="fill:#020202;fill-opacity:1;fill-rule:nonzero;stroke:none"
         id="path162" />
      <path
         d="m 17707,9767.1 c -315.3,-908.5 -1021,-1892 -1216.3,-1749.4 -0.8,0.6 -1.4,1.1 -2.1,1.7 -188.5,147.6 416.6,1037.2 813,1800.2 398,765.8 382.9,1832 277.8,2297.4 15.3,-10.3 30.3,-23.4 44.7,-39 269.1,-289.5 382.1,-1449 82.9,-2310.9"
         style="fill:#02273d;fill-opacity:1;fill-rule:nonzero;stroke:none"
         id="path164" />
      <path
         d="m 17354.2,9511.8 c -351.7,-612.7 -639.3,-1191.3 -865.6,-1492.4 -188.5,147.6 416.6,1037.2 813,1800.2 398,765.8 382.9,1832 277.8,2297.4 15.3,-10.3 30.3,-23.4 44.7,-39 216.5,-876.8 182.4,-1778.2 -269.9,-2566.2"
         style="fill:#021721;fill-opacity:1;fill-rule:nonzero;stroke:none"
         id="path166" />
      <path
         d="m 17664.5,9781.9 c -136.1,-392.2 -355,-825.7 -600.5,-1189.6 -253.4,-375.4 -448,-543.4 -528.5,-543.4 -9.9,0 -15.1,3 -18.2,5.2 -19.9,14.6 -52.7,78.9 73.5,360.9 93.4,208.5 244.7,475 404.8,757.1 117.6,207 239.1,421.1 346,626.8 349.7,672.9 392.7,1603 312.5,2158.8 203.2,-372.2 285.1,-1384.5 10.4,-2175.8 z m -59.9,2372.5 -94.2,63.6 25.1,-110.8 c 113.7,-503.6 103.9,-1539.8 -273.9,-2266.8 -106.1,-204.2 -227.2,-417.5 -344.3,-623.8 -401.4,-707.1 -620.4,-1113 -453.1,-1235.2 20.5,-15 44.4,-22.6 71.3,-22.6 v 0 c 189.2,0 484.8,407.8 603.2,583.1 249.7,370.1 472.3,811.2 610.9,1210.4 145.8,420.1 207.6,951.4 169.4,1457.8 -36.4,483 -153.9,836 -314.4,944.3"
         style="fill:#020202;fill-opacity:1;fill-rule:nonzero;stroke:none"
         id="path168" />
      <path
         d="m 10653.3,15013.3 c -298.4,-461.8 -546.2,-715.2 -816.46,-754.6 -270.29,-39.4 -2184.82,-180.2 -2635.3,123.9 -450.47,304.1 -777.07,1531.6 -855.9,1740 -78.84,208.3 -934.74,444.8 -1863.85,11.2 L 4320.4,16033 c -559.26,-250.1 -1809.11,-862.2 -2314.88,-1170.2 -676.62,476.6 -1027.543,1331.1 -952.99,1659.6 56.31,247.7 2691.6,613.7 2950.63,461.7 259.02,-152 366.01,-512.4 377.27,-551.8 281.55,301.2 1036.1,619.4 2027.15,191.4 28.15,287.2 157.67,433.6 551.83,495.6 394.17,61.9 1289.49,157.6 2212.97,61.9 923.52,-95.7 1807.52,-264.7 1993.32,-501.2 185.9,-236.5 -213.9,-1205 -512.4,-1666.7"
         style="fill:#514f4f;fill-opacity:1;fill-rule:nonzero;stroke:none"
         id="path170" />
      <path
         d="m 7984.25,17186.8 c -518.05,-163.3 -1345.8,-1216.3 -1334.54,-1779.4 50.68,-129.5 247.76,-574.3 247.76,-574.3 61.94,456.1 1199.4,2179.2 2060.94,2286.2 -433.59,45 -974.16,67.5 -974.16,67.5"
         style="fill:#9e9a9a;fill-opacity:1;fill-rule:nonzero;stroke:none"
         id="path172" />
      <path
         d="m 9887.51,17057.3 c -484.26,-73.2 -1852.58,-1846.9 -2207.33,-2691.6 287.18,-112.6 968.52,-118.2 968.52,-118.2 123.88,394.1 1531.6,2505.7 2190.4,2528.3 -382.9,185.8 -951.59,281.5 -951.59,281.5"
         style="fill:#9e9a9a;fill-opacity:1;fill-rule:nonzero;stroke:none"
         id="path174" />
      <path
         d="m 1793.94,16794.5 c -206.47,-221.4 -454.23,-949.7 -454.23,-1156.2 108.87,-157.7 292.81,-364.1 292.81,-364.1 48.8,728.2 638.18,1580.4 690.73,1599.2 -153.91,-26.3 -529.31,-78.9 -529.31,-78.9"
         style="fill:#9e9a9a;fill-opacity:1;fill-rule:nonzero;stroke:none"
         id="path176" />
      <path
         d="m 2957.67,16940.9 c -255.27,-101.3 -713.25,-1268.8 -724.51,-1940.8 142.65,3.8 754.55,371.7 754.55,371.7 -30.04,371.6 442.97,1569.1 615.65,1606.7 -210.22,11.2 -645.69,-37.6 -645.69,-37.6"
         style="fill:#9e9a9a;fill-opacity:1;fill-rule:nonzero;stroke:none"
         id="path178" />
      <path
         d="m 2508.58,15090.8 c 988.75,523.9 2052.7,1011 2614.77,1235.7 l -306.32,-29.9 c -599.66,-255 -1503.62,-677.4 -2350.63,-1126.2 -271.28,-143.8 -521.9,-282.1 -751.22,-414.6 l 46.57,-77.1 c 227.9,131.6 477.06,269.1 746.83,412.1"
         style="fill:#020202;fill-opacity:1;fill-rule:nonzero;stroke:none"
         id="path180" />
      <path
         d="m 11201.2,16707.9 c -229.5,292 -1366.71,450 -2024.17,518.1 -1048.63,108.7 -2037.11,-32.8 -2224.61,-62.2 -367.49,-57.8 -535.85,-193.1 -581.92,-475.7 -428.61,174.7 -859.87,229.2 -1250.67,157.7 -287.17,-52.6 -544.63,-171.6 -719.16,-330.4 -47.11,130.5 -161.43,382.4 -374.71,507.6 -170.59,100.1 -1054.36,-4.7 -1321.17,-39.3 -520.93,-67.3 -1236.97,-192.6 -1540.56,-324 -97.16,-42 -145.15,-81.3 -155.62,-127.3 -46.059,-202.7 53.68,-558.4 254.1,-906.3 180.48,-313.2 417.81,-581.1 684.76,-776.8 l 139.28,81.4 c -358.29,249.8 -544.94,580.8 -656.94,775.2 -215.75,374.5 -246.16,648.1 -165.18,777.1 50.68,80.7 899.51,281.6 1535.38,360.3 715.41,88.7 1073.97,92.8 1146.84,52.6 326.59,-180.2 405.43,-574.4 405.43,-574.4 0,0 914.09,788.4 2111.61,175.5 0,0 -53.5,366 484.26,464.6 184.77,33.8 1155.76,194.8 2193.26,87.3 1078.49,-111.8 1626.19,-295.7 1776.59,-487.1 71.8,-91.4 133.1,-201.8 9.4,-559.4 -107.8,-311.4 -272.7,-645.6 -428,-885.9 -310.1,-479.7 -476.7,-663.2 -717,-698.2 -284.94,-41.6 -2073.48,-178 -2503.9,112.6 -366.83,247.6 -783.05,1633 -795.84,1666.8 -21.69,57.3 -192.51,126 -300.32,169.8 -164.98,67.1 -501.95,126.1 -844.64,100.4 -883.93,-66.1 -1078.33,-407.3 -1078.33,-407.3 743.35,346.9 1587.53,273.7 1899.3,146.9 116.98,-47.6 140.43,-89.2 144.83,-100.9 11.96,-31.6 30.58,-89.8 54.17,-163.6 138.26,-432.6 425.93,-1332.6 818.67,-1597.7 195.23,-131.8 655.12,-198.6 1367.39,-198.6 14.28,0 28.72,0.1 43.2,0.1 580.78,2.2 1126.63,48.4 1256.41,67.3 268.66,39.2 522.16,270.9 847.86,774.7 285,441 723.4,1447.5 510,1719.1"
         style="fill:#020202;fill-opacity:1;fill-rule:nonzero;stroke:none"
         id="path182" />
      <path
         d="M 5484.1,5408.7 C 5354.59,5065.2 6122.28,4061 8329.61,5577.7 7368.6,5119.7 5927.07,4436.4 5484.1,5408.7"
         style="fill:#f7f9f7;fill-opacity:1;fill-rule:nonzero;stroke:none"
         id="path184" />
      <path
         d="m 10626.4,17759.9 c 591.2,253.3 3692.8,119.5 6142.2,-657.5 2449.3,-777.1 4076.8,-1756.9 5564,-2079.1 152,506.8 1606,1260.7 2829.8,1230.7 -1156.2,-217.8 -2222.3,-1201.3 -2222.3,-1659.3 -1768.1,63.8 -4437.2,1572.9 -6070.2,1989.6 -1819.8,464.4 -5128.6,635 -5179.3,601.2 -506.7,489.9 -962.8,557.5 -1064.2,574.4"
         style="fill:#88dff2;fill-opacity:1;fill-rule:nonzero;stroke:none"
         id="path186" />
      <path
         d="m 25350.1,14129.2 c 495.6,-112.6 1903.3,-270.3 2477.7,90.1 574.3,360.4 3570,3750.2 5946.3,4268.3 -2826.8,-1295.1 -4808.9,-4009.3 -5743.6,-4459.7 -934.8,-450.5 -2376.3,-33.8 -2680.4,101.3"
         style="fill:#88dff2;fill-opacity:1;fill-rule:nonzero;stroke:none"
         id="path188" />
      <path
         d="m 18396.8,6847.6 c 591.2,-777 2583.7,-2118.3 4273.6,-1875 -472.9,540.5 -1402,1520.3 -1435.8,1655.4 185.8,-658.8 520.2,-1074.4 287.2,-1114.9 -233.5,-40.6 -1434.7,177.2 -3125,1334.5"
         style="fill:#88dff2;fill-opacity:1;fill-rule:nonzero;stroke:none"
         id="path190" />
      <path
         d="m 24133.9,10716.8 c 298.4,-129.5 985.4,-349.1 1464,-33.7 -247.8,90.1 -568.7,411 -602.5,501.1 56.3,-242.1 151.6,-369.4 230.9,-427.9 129.5,-95.8 -546.2,-166.2 -1092.4,-39.5"
         style="fill:#88dff2;fill-opacity:1;fill-rule:nonzero;stroke:none"
         id="path192" />
    </g>
  </g>
</svg>
